<svg xmlns="http://www.w3.org/2000/svg" viewBox="0 0 64 64" width="64" height="64">
  <defs>
    <pattern id="grassBase" width="64" height="64" patternUnits="userSpaceOnUse">
      <rect width="64" height="64" fill="#3d5526"/>
    </pattern>
  </defs>
  <rect width="64" height="64" fill="#3d5526"/>
  <!-- Soil undertones -->
  <ellipse cx="10" cy="14" rx="8" ry="4" fill="#4d6530" opacity="0.5"/>
  <ellipse cx="50" cy="30" rx="10" ry="5" fill="#4d6530" opacity="0.5"/>
  <ellipse cx="28" cy="52" rx="12" ry="5" fill="#2d4020" opacity="0.6"/>
  <ellipse cx="55" cy="10" rx="6" ry="3" fill="#5a7238" opacity="0.4"/>
  <!-- Grass blade clumps -->
  <g stroke="#6a8540" stroke-width="0.9" stroke-linecap="round" fill="none">
    <path d="M 6 20 Q 6 16 5 13"/>
    <path d="M 8 21 Q 9 17 10 14"/>
    <path d="M 10 22 Q 10 18 11 15"/>

    <path d="M 20 10 Q 21 7 23 5"/>
    <path d="M 22 11 Q 22 8 21 5"/>
    <path d="M 24 12 Q 25 9 27 7"/>

    <path d="M 38 28 Q 38 24 37 22"/>
    <path d="M 40 28 Q 41 25 42 22"/>
    <path d="M 42 29 Q 42 25 43 22"/>

    <path d="M 54 40 Q 55 36 56 34"/>
    <path d="M 56 41 Q 56 37 55 34"/>
    <path d="M 58 40 Q 59 37 60 35"/>

    <path d="M 12 48 Q 13 45 15 43"/>
    <path d="M 14 49 Q 14 46 13 43"/>
    <path d="M 16 50 Q 17 47 19 45"/>

    <path d="M 32 55 Q 32 51 31 49"/>
    <path d="M 34 56 Q 35 53 36 50"/>
    <path d="M 36 56 Q 36 52 37 50"/>
  </g>
  <!-- Lighter grass tips -->
  <g stroke="#8aa555" stroke-width="0.6" stroke-linecap="round" fill="none" opacity="0.8">
    <path d="M 7 18 Q 7 15 7 12"/>
    <path d="M 23 9 Q 23 6 24 4"/>
    <path d="M 41 26 Q 42 23 43 20"/>
    <path d="M 58 38 Q 59 35 60 32"/>
    <path d="M 15 47 Q 15 44 16 42"/>
    <path d="M 35 53 Q 36 50 37 47"/>
  </g>
  <!-- Tiny detail specks -->
  <circle cx="46" cy="18" r="0.5" fill="#a8c468"/>
  <circle cx="18" cy="35" r="0.5" fill="#a8c468"/>
  <circle cx="4" cy="55" r="0.6" fill="#a8c468"/>
  <circle cx="60" cy="52" r="0.5" fill="#a8c468"/>
</svg>
