<svg xmlns="http://www.w3.org/2000/svg" viewBox="0 0 40 40" width="40" height="40">
  <defs>
    <radialGradient id="liShadow" cx="0.5" cy="0.6" r="0.5">
      <stop offset="0%" stop-color="rgba(0,0,0,0.35)"/>
      <stop offset="100%" stop-color="rgba(0,0,0,0)"/>
    </radialGradient>
  </defs>
  <ellipse cx="20" cy="34" rx="12" ry="3" fill="url(#liShadow)"/>
  <!-- AK rifle -->
  <rect x="22" y="19" width="14" height="1.6" fill="#1a1a1a"/>
  <rect x="20" y="18.5" width="3" height="3" fill="#2a2a2a"/>
  <rect x="19" y="20" width="2" height="3" fill="#3a2a18"/>
  <!-- Torso (red uniform) -->
  <ellipse cx="20" cy="22" rx="8" ry="6.5" fill="#7a2020"/>
  <path d="M 12 22 Q 12 17 20 17 Q 28 17 28 22" fill="#8b2e2e"/>
  <!-- Belt -->
  <rect x="12" y="24" width="16" height="1.8" fill="#2a1010"/>
  <!-- Chest strap -->
  <line x1="15" y1="17" x2="17" y2="27" stroke="#4a1818" stroke-width="1.2"/>
  <line x1="25" y1="17" x2="23" y2="27" stroke="#4a1818" stroke-width="1.2"/>
  <!-- Head -->
  <circle cx="20" cy="13" r="5.2" fill="#c49575"/>
  <!-- Cap -->
  <path d="M 14.5 11.5 Q 14.5 7 20 7 Q 25.5 7 25.5 11.5 L 26 13 L 14 13 Z" fill="#5a1515"/>
  <!-- Red star emblem -->
  <polygon points="20,8.5 20.6,10 22.2,10 21,11 21.5,12.5 20,11.6 18.5,12.5 19,11 17.8,10 19.4,10" fill="#ffe04a"/>
  <!-- Face shadow -->
  <path d="M 16 14 Q 20 16.5 24 14" fill="none" stroke="#8a6545" stroke-width="0.6" opacity="0.6"/>
</svg>
