<svg xmlns="http://www.w3.org/2000/svg" viewBox="0 0 48 48" width="48" height="48">
  <defs>
    <radialGradient id="aShadow" cx="0.5" cy="0.6" r="0.5">
      <stop offset="0%" stop-color="rgba(0,0,0,0.35)"/>
      <stop offset="100%" stop-color="rgba(0,0,0,0)"/>
    </radialGradient>
  </defs>
  <ellipse cx="24" cy="40" rx="14" ry="4" fill="url(#aShadow)"/>
  <!-- Bow (to the right) -->
  <path d="M 34 14 Q 42 24 34 34" fill="none" stroke="#6b4a22" stroke-width="2" stroke-linecap="round"/>
  <line x1="34" y1="14" x2="34" y2="34" stroke="#ddd" stroke-width="0.5"/>
  <!-- Arrow nocked -->
  <line x1="30" y1="24" x2="38" y2="24" stroke="#3a2a18" stroke-width="1.2"/>
  <polygon points="38,24 36,23 36,25" fill="#888"/>
  <!-- Torso (leather vest) -->
  <ellipse cx="24" cy="26" rx="10" ry="8" fill="#4a2e16"/>
  <path d="M 14 26 Q 14 20 24 20 Q 34 20 34 26" fill="#5d3a1e"/>
  <!-- Belt -->
  <rect x="14" y="28" width="20" height="2" fill="#2a1a0a"/>
  <circle cx="24" cy="29" r="1" fill="#8a7040"/>
  <!-- Leather straps -->
  <line x1="18" y1="20" x2="22" y2="32" stroke="#2a1a0a" stroke-width="1"/>
  <line x1="30" y1="20" x2="26" y2="32" stroke="#2a1a0a" stroke-width="1"/>
  <!-- Head with hood -->
  <circle cx="24" cy="16" r="6.5" fill="#c4a17a"/>
  <!-- Hood -->
  <path d="M 17 12 Q 17 7 24 7 Q 31 7 31 12 Q 31 16 29 18 L 19 18 Q 17 16 17 12 Z" fill="#3a2818"/>
  <path d="M 19 14 Q 24 13 29 14 L 29 18 L 19 18 Z" fill="#4a3420"/>
  <!-- Face shadow -->
  <ellipse cx="24" cy="17" rx="4" ry="2" fill="rgba(0,0,0,0.3)"/>
</svg>
