<svg xmlns="http://www.w3.org/2000/svg" viewBox="0 0 48 48" width="48" height="48">
  <defs>
    <radialGradient id="mShadow" cx="0.5" cy="0.6" r="0.5">
      <stop offset="0%" stop-color="rgba(0,0,0,0.35)"/>
      <stop offset="100%" stop-color="rgba(0,0,0,0)"/>
    </radialGradient>
  </defs>
  <ellipse cx="24" cy="40" rx="14" ry="4" fill="url(#mShadow)"/>
  <!-- Rifle barrel -->
  <rect x="28" y="22" width="16" height="2" fill="#2a2418"/>
  <rect x="42" y="22.5" width="2" height="1" fill="#6b5a3a"/>
  <!-- Torso (brown jacket) -->
  <ellipse cx="24" cy="26" rx="10" ry="8" fill="#6b4f2c"/>
  <path d="M 14 26 Q 14 20 24 20 Q 34 20 34 26" fill="#7a5a36"/>
  <!-- Rifle stock -->
  <rect x="22" y="22" width="8" height="3" fill="#3a2a18" rx="0.5"/>
  <!-- Shoulder straps -->
  <line x1="18" y1="20" x2="20" y2="32" stroke="#4a3820" stroke-width="1.5"/>
  <line x1="30" y1="20" x2="28" y2="32" stroke="#4a3820" stroke-width="1.5"/>
  <!-- Head -->
  <circle cx="24" cy="16" r="6.5" fill="#d4b58a"/>
  <!-- Flat cap -->
  <path d="M 17 14 Q 17 10 24 9.5 Q 31 10 31 14 L 32 15 L 16 15 Z" fill="#5a4626"/>
  <ellipse cx="24" cy="13" rx="6.5" ry="2" fill="#6b5530"/>
  <!-- Face shadow -->
  <path d="M 19 17 Q 24 20 29 17" fill="none" stroke="#8a7050" stroke-width="0.8" opacity="0.6"/>
</svg>
